<?xml version="1.0" encoding="UTF-8"?>
<svg id="Ebene_1" xmlns="http://www.w3.org/2000/svg" xmlns:xlink="http://www.w3.org/1999/xlink" version="1.1" viewBox="0 0 1024 601.91">
  <!-- Generator: Adobe Illustrator 30.0.0, SVG Export Plug-In . SVG Version: 2.1.1 Build 123)  -->
  <defs>
    <style>
      .st0 {
        stroke: #000;
        stroke-width: 1.18px;
      }

      .st0, .st1 {
        fill: none;
        stroke-miterlimit: 10;
      }

      .st1 {
        stroke:#1d1d1b;
      }

      svg {
        fill: #000;
      }
    </style>
    <symbol id="Neues_Symbol" viewBox="0 0 186.25 12.04">
      <g>
        <circle cx="180.23" cy="6.02" r="6.02"/>
        <line class="st1" x1="180.23" y1="6.02" y2="6.02"/>
      </g>
    </symbol>
  </defs>
  <circle cx="378.32" cy="354.64" r="21.88"/>
  <g>
    <g id="_x3C_Radiale_Wiederholung_x3E_">
      <use width="186.25" height="12.04" transform="translate(377.29 347.62) rotate(-7.2) scale(1.18)" xlink:href="#Neues_Symbol"/>
    </g>
    <g id="_x3C_Radiale_Wiederholung_x3E_1" data-name="_x3C_Radiale_Wiederholung_x3E_">
      <use width="186.25" height="12.04" transform="translate(379.07 347.58) rotate(7.2) scale(1.18)" xlink:href="#Neues_Symbol"/>
    </g>
    <g id="_x3C_Radiale_Wiederholung_x3E_2" data-name="_x3C_Radiale_Wiederholung_x3E_">
      <use width="186.25" height="12.04" transform="translate(380.8 347.98) rotate(21.6) scale(1.18)" xlink:href="#Neues_Symbol"/>
    </g>
    <g id="_x3C_Radiale_Wiederholung_x3E_3" data-name="_x3C_Radiale_Wiederholung_x3E_">
      <use width="186.25" height="12.04" transform="translate(382.38 348.81) rotate(36) scale(1.18)" xlink:href="#Neues_Symbol"/>
    </g>
    <g id="_x3C_Radiale_Wiederholung_x3E_4" data-name="_x3C_Radiale_Wiederholung_x3E_">
      <use width="186.25" height="12.04" transform="translate(383.7 350) rotate(50.4) scale(1.18)" xlink:href="#Neues_Symbol"/>
    </g>
    <g id="_x3C_Radiale_Wiederholung_x3E_5" data-name="_x3C_Radiale_Wiederholung_x3E_">
      <use width="186.25" height="12.04" transform="translate(384.68 351.48) rotate(64.8) scale(1.18)" xlink:href="#Neues_Symbol"/>
    </g>
    <g id="_x3C_Radiale_Wiederholung_x3E_6" data-name="_x3C_Radiale_Wiederholung_x3E_">
      <use width="186.25" height="12.04" transform="translate(385.27 353.16) rotate(79.2) scale(1.18)" xlink:href="#Neues_Symbol"/>
    </g>
    <g id="_x3C_Radiale_Wiederholung_x3E_7" data-name="_x3C_Radiale_Wiederholung_x3E_">
      <use width="186.25" height="12.04" transform="translate(385.42 354.94) rotate(93.6) scale(1.18)" xlink:href="#Neues_Symbol"/>
    </g>
    <g id="_x3C_Radiale_Wiederholung_x3E_8" data-name="_x3C_Radiale_Wiederholung_x3E_">
      <use width="186.25" height="12.04" transform="translate(385.12 356.69) rotate(108) scale(1.18)" xlink:href="#Neues_Symbol"/>
    </g>
    <g id="_x3C_Radiale_Wiederholung_x3E_9" data-name="_x3C_Radiale_Wiederholung_x3E_">
      <use width="186.25" height="12.04" transform="translate(384.4 358.32) rotate(122.4) scale(1.18)" xlink:href="#Neues_Symbol"/>
    </g>
    <g id="_x3C_Radiale_Wiederholung_x3E_10" data-name="_x3C_Radiale_Wiederholung_x3E_">
      <use width="186.25" height="12.04" transform="translate(383.29 359.71) rotate(136.8) scale(1.18)" xlink:href="#Neues_Symbol"/>
    </g>
    <g id="_x3C_Radiale_Wiederholung_x3E_11" data-name="_x3C_Radiale_Wiederholung_x3E_">
      <use width="186.25" height="12.04" transform="translate(381.87 360.79) rotate(151.2) scale(1.18)" xlink:href="#Neues_Symbol"/>
    </g>
    <g id="_x3C_Radiale_Wiederholung_x3E_12" data-name="_x3C_Radiale_Wiederholung_x3E_">
      <use width="186.25" height="12.04" transform="translate(380.23 361.48) rotate(165.6) scale(1.18)" xlink:href="#Neues_Symbol"/>
    </g>
    <g id="_x3C_Radiale_Wiederholung_x3E_13" data-name="_x3C_Radiale_Wiederholung_x3E_">
      <use width="186.25" height="12.04" transform="translate(378.47 361.74) rotate(-180) scale(1.18)" xlink:href="#Neues_Symbol"/>
    </g>
    <g id="_x3C_Radiale_Wiederholung_x3E_14" data-name="_x3C_Radiale_Wiederholung_x3E_">
      <use width="186.25" height="12.04" transform="translate(376.7 361.55) rotate(-165.6) scale(1.18)" xlink:href="#Neues_Symbol"/>
    </g>
    <g id="_x3C_Radiale_Wiederholung_x3E_15" data-name="_x3C_Radiale_Wiederholung_x3E_">
      <use width="186.25" height="12.04" transform="translate(375.03 360.93) rotate(-151.2) scale(1.18)" xlink:href="#Neues_Symbol"/>
    </g>
    <g id="_x3C_Radiale_Wiederholung_x3E_16" data-name="_x3C_Radiale_Wiederholung_x3E_">
      <use width="186.25" height="12.04" transform="translate(373.57 359.91) rotate(-136.8) scale(1.18)" xlink:href="#Neues_Symbol"/>
    </g>
    <g id="_x3C_Radiale_Wiederholung_x3E_17" data-name="_x3C_Radiale_Wiederholung_x3E_">
      <use width="186.25" height="12.04" transform="translate(372.41 358.57) rotate(-122.4) scale(1.18)" xlink:href="#Neues_Symbol"/>
    </g>
    <g id="_x3C_Radiale_Wiederholung_x3E_18" data-name="_x3C_Radiale_Wiederholung_x3E_">
      <use width="186.25" height="12.04" transform="translate(371.62 356.97) rotate(-108) scale(1.18)" xlink:href="#Neues_Symbol"/>
    </g>
    <g id="_x3C_Radiale_Wiederholung_x3E_19" data-name="_x3C_Radiale_Wiederholung_x3E_">
      <use width="186.25" height="12.04" transform="translate(371.25 355.23) rotate(-93.6) scale(1.18)" xlink:href="#Neues_Symbol"/>
    </g>
    <g id="_x3C_Radiale_Wiederholung_x3E_20" data-name="_x3C_Radiale_Wiederholung_x3E_">
      <use width="186.25" height="12.04" transform="translate(371.32 353.46) rotate(-79.2) scale(1.18)" xlink:href="#Neues_Symbol"/>
    </g>
    <g id="_x3C_Radiale_Wiederholung_x3E_21" data-name="_x3C_Radiale_Wiederholung_x3E_">
      <use width="186.25" height="12.04" transform="translate(371.84 351.75) rotate(-64.8) scale(1.18)" xlink:href="#Neues_Symbol"/>
    </g>
    <g id="_x3C_Radiale_Wiederholung_x3E_22" data-name="_x3C_Radiale_Wiederholung_x3E_">
      <use width="186.25" height="12.04" transform="translate(372.76 350.23) rotate(-50.4) scale(1.18)" xlink:href="#Neues_Symbol"/>
    </g>
    <g id="_x3C_Radiale_Wiederholung_x3E_23" data-name="_x3C_Radiale_Wiederholung_x3E_">
      <use width="186.25" height="12.04" transform="translate(374.03 348.98) rotate(-36) scale(1.18)" xlink:href="#Neues_Symbol"/>
    </g>
    <g id="_x3C_Radiale_Wiederholung_x3E_24" data-name="_x3C_Radiale_Wiederholung_x3E_">
      <use width="186.25" height="12.04" transform="translate(375.57 348.09) rotate(-21.6) scale(1.18)" xlink:href="#Neues_Symbol"/>
    </g>
  </g>
  <g>
    <g id="_x3C_Radiale_Wiederholung_x3E_25" data-name="_x3C_Radiale_Wiederholung_x3E_">
      <use width="186.25" height="12.04" transform="translate(843.2 175.86) rotate(-173.63) scale(.77)" xlink:href="#Neues_Symbol"/>
    </g>
    <g id="_x3C_Radiale_Wiederholung_x3E_26" data-name="_x3C_Radiale_Wiederholung_x3E_">
      <use width="186.25" height="12.04" transform="translate(841.1 175.14) rotate(-145.94) scale(.77)" xlink:href="#Neues_Symbol"/>
    </g>
    <g id="_x3C_Radiale_Wiederholung_x3E_27" data-name="_x3C_Radiale_Wiederholung_x3E_">
      <use width="186.25" height="12.04" transform="translate(839.58 173.53) rotate(-118.25) scale(.77)" xlink:href="#Neues_Symbol"/>
    </g>
    <g id="_x3C_Radiale_Wiederholung_x3E_28" data-name="_x3C_Radiale_Wiederholung_x3E_">
      <use width="186.25" height="12.04" transform="translate(838.99 171.4) rotate(-90.56) scale(.77)" xlink:href="#Neues_Symbol"/>
    </g>
    <g id="_x3C_Radiale_Wiederholung_x3E_29" data-name="_x3C_Radiale_Wiederholung_x3E_">
      <use width="186.25" height="12.04" transform="translate(839.45 169.23) rotate(-62.86) scale(.77)" xlink:href="#Neues_Symbol"/>
    </g>
    <g id="_x3C_Radiale_Wiederholung_x3E_30" data-name="_x3C_Radiale_Wiederholung_x3E_">
      <use width="186.25" height="12.04" transform="translate(840.87 167.53) rotate(-35.17) scale(.77)" xlink:href="#Neues_Symbol"/>
    </g>
    <g id="_x3C_Radiale_Wiederholung_x3E_31" data-name="_x3C_Radiale_Wiederholung_x3E_">
      <use width="186.25" height="12.04" transform="translate(842.91 166.68) rotate(-7.48) scale(.77)" xlink:href="#Neues_Symbol"/>
    </g>
    <g id="_x3C_Radiale_Wiederholung_x3E_32" data-name="_x3C_Radiale_Wiederholung_x3E_">
      <use width="186.25" height="12.04" transform="translate(845.12 166.88) rotate(20.21) scale(.77)" xlink:href="#Neues_Symbol"/>
    </g>
    <g id="_x3C_Radiale_Wiederholung_x3E_33" data-name="_x3C_Radiale_Wiederholung_x3E_">
      <use width="186.25" height="12.04" transform="translate(846.98 168.08) rotate(47.91) scale(.77)" xlink:href="#Neues_Symbol"/>
    </g>
    <g id="_x3C_Radiale_Wiederholung_x3E_34" data-name="_x3C_Radiale_Wiederholung_x3E_">
      <use width="186.25" height="12.04" transform="translate(848.07 170.01) rotate(75.6) scale(.77)" xlink:href="#Neues_Symbol"/>
    </g>
    <g id="_x3C_Radiale_Wiederholung_x3E_35" data-name="_x3C_Radiale_Wiederholung_x3E_">
      <use width="186.25" height="12.04" transform="translate(848.14 172.22) rotate(103.29) scale(.77)" xlink:href="#Neues_Symbol"/>
    </g>
    <g id="_x3C_Radiale_Wiederholung_x3E_36" data-name="_x3C_Radiale_Wiederholung_x3E_">
      <use width="186.25" height="12.04" transform="translate(847.17 174.21) rotate(130.98) scale(.77)" xlink:href="#Neues_Symbol"/>
    </g>
    <g id="_x3C_Radiale_Wiederholung_x3E_37" data-name="_x3C_Radiale_Wiederholung_x3E_">
      <use width="186.25" height="12.04" transform="translate(845.38 175.53) rotate(158.68) scale(.77)" xlink:href="#Neues_Symbol"/>
    </g>
  </g>
  <g>
    <use width="186.25" height="12.04" transform="translate(573.05 430.73) rotate(-50.4) scale(.56)" xlink:href="#Neues_Symbol"/>
    <use width="186.25" height="12.04" transform="translate(573.66 430.13) rotate(-36) scale(.56)" xlink:href="#Neues_Symbol"/>
    <use width="186.25" height="12.04" transform="translate(574.39 429.71) rotate(-21.6) scale(.56)" xlink:href="#Neues_Symbol"/>
    <use width="186.25" height="12.04" transform="translate(575.21 429.48) rotate(-7.2) scale(.56)" xlink:href="#Neues_Symbol"/>
    <use width="186.25" height="12.04" transform="translate(576.07 429.46) rotate(7.2) scale(.56)" xlink:href="#Neues_Symbol"/>
    <use width="186.25" height="12.04" transform="translate(576.89 429.65) rotate(21.6) scale(.56)" xlink:href="#Neues_Symbol"/>
    <use width="186.25" height="12.04" transform="translate(577.65 430.05) rotate(36) scale(.56)" xlink:href="#Neues_Symbol"/>
    <use width="186.25" height="12.04" transform="translate(578.28 430.62) rotate(50.4) scale(.56)" xlink:href="#Neues_Symbol"/>
    <use width="186.25" height="12.04" transform="translate(578.75 431.33) rotate(64.8) scale(.56)" xlink:href="#Neues_Symbol"/>
    <use width="186.25" height="12.04" transform="translate(579.03 432.13) rotate(79.2) scale(.56)" xlink:href="#Neues_Symbol"/>
    <use width="186.25" height="12.04" transform="translate(579.1 432.98) rotate(93.6) scale(.56)" xlink:href="#Neues_Symbol"/>
  </g>
  <g>
    <g id="_x3C_Radiale_Wiederholung_x3E_38" data-name="_x3C_Radiale_Wiederholung_x3E_">
      <use width="186.25" height="12.04" transform="translate(197.24 259.26) rotate(156.6) scale(.84)" xlink:href="#Neues_Symbol"/>
    </g>
    <g id="_x3C_Radiale_Wiederholung_x3E_39" data-name="_x3C_Radiale_Wiederholung_x3E_">
      <use width="186.25" height="12.04" transform="translate(196.03 259.64) rotate(171) scale(.84)" xlink:href="#Neues_Symbol"/>
    </g>
    <g id="_x3C_Radiale_Wiederholung_x3E_40" data-name="_x3C_Radiale_Wiederholung_x3E_">
      <use width="186.25" height="12.04" transform="translate(194.75 259.71) rotate(-174.6) scale(.84)" xlink:href="#Neues_Symbol"/>
    </g>
    <g id="_x3C_Radiale_Wiederholung_x3E_41" data-name="_x3C_Radiale_Wiederholung_x3E_">
      <use width="186.25" height="12.04" transform="translate(193.5 259.45) rotate(-160.2) scale(.84)" xlink:href="#Neues_Symbol"/>
    </g>
    <g id="_x3C_Radiale_Wiederholung_x3E_42" data-name="_x3C_Radiale_Wiederholung_x3E_">
      <use width="186.25" height="12.04" transform="translate(192.36 258.9) rotate(-145.8) scale(.84)" xlink:href="#Neues_Symbol"/>
    </g>
    <g id="_x3C_Radiale_Wiederholung_x3E_43" data-name="_x3C_Radiale_Wiederholung_x3E_">
      <use width="186.25" height="12.04" transform="translate(191.38 258.08) rotate(-131.4) scale(.84)" xlink:href="#Neues_Symbol"/>
    </g>
    <g id="_x3C_Radiale_Wiederholung_x3E_44" data-name="_x3C_Radiale_Wiederholung_x3E_">
      <use width="186.25" height="12.04" transform="translate(190.64 257.04) rotate(-117) scale(.84)" xlink:href="#Neues_Symbol"/>
    </g>
  </g>
  <g>
    <use width="186.25" height="12.04" transform="translate(665.79 397.76) rotate(-95.4) scale(.35)" xlink:href="#Neues_Symbol"/>
    <use width="186.25" height="12.04" transform="translate(665.8 397.23) rotate(-81) scale(.35)" xlink:href="#Neues_Symbol"/>
    <use width="186.25" height="12.04" transform="translate(665.93 396.72) rotate(-66.6) scale(.35)" xlink:href="#Neues_Symbol"/>
    <use width="186.25" height="12.04" transform="translate(666.19 396.26) rotate(-52.2) scale(.35)" xlink:href="#Neues_Symbol"/>
    <use width="186.25" height="12.04" transform="translate(666.56 395.88) rotate(-37.8) scale(.35)" xlink:href="#Neues_Symbol"/>
    <use width="186.25" height="12.04" transform="translate(667.01 395.6) rotate(-23.4) scale(.35)" xlink:href="#Neues_Symbol"/>
    <use width="186.25" height="12.04" transform="translate(667.51 395.45) rotate(-9) scale(.35)" xlink:href="#Neues_Symbol"/>
    <use width="186.25" height="12.04" transform="translate(668.03 395.42) rotate(5.4) scale(.35)" xlink:href="#Neues_Symbol"/>
    <use width="186.25" height="12.04" transform="translate(668.55 395.52) rotate(19.8) scale(.35)" xlink:href="#Neues_Symbol"/>
    <use width="186.25" height="12.04" transform="translate(669.03 395.75) rotate(34.2) scale(.35)" xlink:href="#Neues_Symbol"/>
    <use width="186.25" height="12.04" transform="translate(669.43 396.09) rotate(48.6) scale(.35)" xlink:href="#Neues_Symbol"/>
  </g>
  <line class="st0" x1="378.32" y1="354.64" x2="843.7" y2="171.21"/>
</svg>